/* XPM */
static char *icon_xpm[] = {
/* width height ncolors chars_per_pixel */
"32 32 11 1",
/* colors */
"  c #000000",
". c #FF0000",
"X c #00FFFF",
"o c #FFFFFF",
"O c #C0C0C0",
"+ c #0000FF",
"@ c #808080",
"# c #FFFF00",
"$ c #808000",
"% c #000080",
"& c #800000",
/* pixels */
"                                ",
"          @                     ",
"                   o            ",
"                            o   ",
"   o                  O         ",
"                                ",
"       %                        ",
"                                ",
" @             @        o       ",
"          o                #o   ",
"                          #.#   ",
"        O                #.#    ",
"                    oo  #.      ",
"           XXX+++ooo@@ .        ",
"          X+++oooo@@@ #  @    & ",
"          ++oooo@@@@@.          ",
"   o     ooooo@@@@@@#      o    ",
"     ooooooo@@@@@@@.            ",
"    oooooo@@@@@@@@#             ",
"   ooooo@@@@@@@@@@@             ",
"   ooo@@@@O$O$O$@@@             ",
"    @@@@@OoO#O#O@@              ",
"      #   #  oO$@@              ",
"     # ##  ## oO@@              ",
"      # ##. ## @@      %        ",
"   . #  .# ##  @@          @  O ",
"  &.  .#  #                     ",
" .  &    .                      ",
"  &. .& .      o       @        ",
"&   &   &                    o  ",
" &&  &&.                        ",
" &   &                          "
};
