/* XPM */
static char *life_xpm[] = {
/* width height ncolors chars_per_pixel */
"16 16 4 1",
/* colors */
"  c #800000",
". c None",
"X c #FF0000",
"o c #FFFFFF",
/* pixels */
"................",
"...   ....   ...",
".. XXX .. XXX ..",
". XXXoX  XXoXX .",
". XXXXoXXXXXoX .",
". XXXXoXXXXXXX .",
". XXXXXXXXXXXX .",
". XXXXXXXXXXXX .",
".. XXXXXXXXXX ..",
".. XXXXXXXXXX ..",
"... XXXXXXXX ...",
".... XXXXXX ....",
"..... XXXX .....",
"...... XX ......",
".......  .......",
"................"
};
