/* XPM */
static char *num2_xpm[] = {
/* width height ncolors chars_per_pixel */
"16 16 7 1",
/* colors */
"  c #000000",
". c #00FFFF",
"X c None",
"o c #008080",
"O c #FFFF00",
"+ c #808000",
"@ c #0000FF",
/* pixels */
"XXXXXXXXXXXXXXXX",
"XXXXX      XXXXX",
"XXXX ...... XXXX",
"XXX o.o.o.o. XXX",
"XX o.o    .o. XX",
"XX .o XXXX .o XX",
"XX    XXX ooo XX",
"XXXXXXXX ooo XXX",
"XXXXXXX @@@ XXXX",
"XXXXXX +++ XXXXX",
"XXXXX +++ XXXXXX",
"XXXX +O+O     XX",
"XXX +O+O+O+O+ XX",
"XX OOOOOOOOOO XX",
"XX            XX",
"XXXXXXXXXXXXXXXX"
};
