/* XPM */
static char *num6_xpm[] = {
/* width height ncolors chars_per_pixel */
"16 16 7 1",
/* colors */
"  c #000000",
". c #00FFFF",
"X c None",
"o c #008080",
"O c #FFFF00",
"+ c #808000",
"@ c #0000FF",
/* pixels */
"XXXXXXXXXXXXXXXX",
"XXXXXXXX    XXXX",
"XXXXXXX .o. XXXX",
"XXXXXX .o. XXXXX",
"XXXXX .o. XXXXXX",
"XXXX .o.    XXXX",
"XXX oooooooo XXX",
"XX oooooooooo XX",
"XX @@@    @@@ XX",
"XX ++ XXXX ++ XX",
"XX ++ XXXX ++ XX",
"XX +O+    O+O XX",
"XXX +O+O+O+O XXX",
"XXXX OOOOOO XXXX",
"XXXXX      XXXXX",
"XXXXXXXXXXXXXXXX"
};
