/* XPM */
static char *score_xpm[] = {
/* width height ncolors chars_per_pixel */
"16 16 3 1",
/* colors */
"  c #FFFFFF",
". c None",
"X c #808080",
/* pixels */
"................",
". X.............",
" X..............",
". X. X..........",
". X X...........",
" X. X.. X.......",
"... X. X X......",
".... X X X  X...",
"...... X X X X..",
"....... X.  X.  ",
".......... X X X",
".......... X X  ",
".............. X",
"..............  ",
"................",
"................"
};
